<?xml version="1.0" encoding="utf-8"?>
<!-- Generator: Adobe Illustrator 16.0.0, SVG Export Plug-In . SVG Version: 6.00 Build 0)  -->
<!DOCTYPE svg PUBLIC "-//W3C//DTD SVG 1.1//EN" "http://www.w3.org/Graphics/SVG/1.1/DTD/svg11.dtd">
<svg version="1.1" id="Layer_1" xmlns="http://www.w3.org/2000/svg" xmlns:xlink="http://www.w3.org/1999/xlink" x="0px" y="0px"
	 width="32px" height="32px" viewBox="0 0 32 32" enable-background="new 0 0 32 32" xml:space="preserve">
<g>
	<defs>
		<rect id="SVGID_1_" width="32" height="32"/>
	</defs>
	<clipPath id="SVGID_2_">
		<use xlink:href="#SVGID_1_"  overflow="visible"/>
	</clipPath>
	<path clip-path="url(#SVGID_2_)" d="M7.947,25.801h4.987V8.514H7.947V25.801z M8.642,10.529h3.597v2.079H8.642V10.529z
		 M2.741,25.751h3.872V6.247H2.741V25.751z M3.447,8.437h2.188v1.321H3.447V8.437z M3.447,22.238h2.188v1.322H3.447V22.238z
		 M14.414,25.668h3.872V7.029h-3.872V25.668z M17.474,23.561h-2.186v-1.322h2.186V23.561z M15.255,11.443h2.187v2.074h-2.187V11.443
		z M22.362,6.141l-3.625,1.358l6.847,18.263l3.626-1.361L22.362,6.141z M20.631,10.541l-0.464-1.238l2.048-0.768l0.464,1.236
		L20.631,10.541z M25.477,23.462l-0.464-1.236l2.047-0.767l0.465,1.237L25.477,23.462z"/>
</g>
</svg>
