<?xml version="1.0" encoding="utf-8"?>
<!-- Generator: Adobe Illustrator 16.0.0, SVG Export Plug-In . SVG Version: 6.00 Build 0)  -->
<!DOCTYPE svg PUBLIC "-//W3C//DTD SVG 1.1//EN" "http://www.w3.org/Graphics/SVG/1.1/DTD/svg11.dtd">
<svg version="1.1" id="Layer_1" xmlns="http://www.w3.org/2000/svg" xmlns:xlink="http://www.w3.org/1999/xlink" x="0px" y="0px"
	 width="32px" height="32px" viewBox="0 0 32 32" enable-background="new 0 0 32 32" xml:space="preserve">
<g>
	<defs>
		<rect id="SVGID_1_" width="32" height="32"/>
	</defs>
	<clipPath id="SVGID_2_">
		<use xlink:href="#SVGID_1_"  overflow="visible"/>
	</clipPath>
	<path clip-path="url(#SVGID_2_)" fill-rule="evenodd" clip-rule="evenodd" d="M16.176,4.323C8.641,4.174,2.438,8.817,2.323,14.693
		c-0.041,2.042,0.661,3.965,1.909,5.611h0c2.146,2.757-0.196,7.497-0.196,7.497l6.916-2.979c1.49,0.471,3.109,0.745,4.806,0.779
		c7.535,0.148,13.737-4.495,13.853-10.371S23.71,4.471,16.176,4.323 M10.133,16.652c-0.928,0-1.681-0.752-1.681-1.681
		s0.752-1.681,1.681-1.681s1.681,0.753,1.681,1.681S11.061,16.652,10.133,16.652 M15.735,16.652c-0.929,0-1.681-0.752-1.681-1.681
		s0.752-1.681,1.681-1.681c0.928,0,1.681,0.753,1.681,1.681S16.664,16.652,15.735,16.652 M21.337,16.652
		c-0.928,0-1.681-0.752-1.681-1.681s0.752-1.681,1.681-1.681s1.681,0.753,1.681,1.681S22.266,16.652,21.337,16.652"/>
</g>
</svg>
