<?xml version="1.0" encoding="utf-8"?>
<!-- Generator: Adobe Illustrator 16.0.0, SVG Export Plug-In . SVG Version: 6.00 Build 0)  -->
<!DOCTYPE svg PUBLIC "-//W3C//DTD SVG 1.1//EN" "http://www.w3.org/Graphics/SVG/1.1/DTD/svg11.dtd">
<svg version="1.1" id="Layer_1" xmlns="http://www.w3.org/2000/svg" xmlns:xlink="http://www.w3.org/1999/xlink" x="0px" y="0px"
	 width="32px" height="32px" viewBox="0 0 32 32" enable-background="new 0 0 32 32" xml:space="preserve">
<g>
	<defs>
		<rect id="SVGID_1_" width="32" height="32"/>
	</defs>
	<clipPath id="SVGID_2_">
		<use xlink:href="#SVGID_1_"  overflow="visible"/>
	</clipPath>
	<path clip-path="url(#SVGID_2_)" fill-rule="evenodd" clip-rule="evenodd" d="M21.399,22.027h-2.805v2.804h2.805V22.027z
		 M17.447,14.522h-2.803v2.803h2.803V14.522z M21.399,18.274h-2.805v2.804h2.805V18.274z M25.348,14.522h-2.803v2.803h2.803V14.522z
		 M17.447,18.274h-2.803v2.804h2.803V18.274z M21.399,14.522h-2.805v2.803h2.805V14.522z M25.348,18.274h-2.803v2.804h2.803V18.274z
		 M9.548,22.027H6.744v2.804h2.804V22.027z M9.548,18.274H6.744v2.804h2.804V18.274z M24.626,4.638v1.23
		c0.484,0.428,0.79,1.052,0.79,1.748c0,1.29-1.045,2.335-2.335,2.335s-2.335-1.046-2.335-2.335c0-0.697,0.307-1.32,0.79-1.748v-1.23
		H10.623v1.23c0.484,0.428,0.79,1.052,0.79,1.748c0,1.29-1.045,2.335-2.335,2.335S6.742,8.906,6.742,7.617
		c0-0.697,0.307-1.32,0.79-1.748v-1.23H2.328v24.853H29.62V4.638H24.626z M27.127,26.998H4.821V11.472h22.306V26.998z
		 M13.499,14.522h-2.805v2.803h2.805V14.522z M13.499,22.027h-2.805v2.804h2.805V22.027z M17.447,22.027h-2.803v2.804h2.803V22.027z
		 M13.499,18.274h-2.805v2.804h2.805V18.274z M9.078,8.978c0.642,0,1.163-0.521,1.163-1.163V3.627c0-0.642-0.521-1.163-1.163-1.163
		S7.915,2.985,7.915,3.627v4.188C7.915,8.457,8.436,8.978,9.078,8.978 M23.081,8.978c0.642,0,1.163-0.521,1.163-1.163V3.627
		c0-0.642-0.521-1.163-1.163-1.163s-1.163,0.521-1.163,1.163v4.188C21.918,8.457,22.439,8.978,23.081,8.978"/>
</g>
</svg>
