<?xml version="1.0" encoding="utf-8"?>
<!-- Generator: Adobe Illustrator 16.0.0, SVG Export Plug-In . SVG Version: 6.00 Build 0)  -->
<!DOCTYPE svg PUBLIC "-//W3C//DTD SVG 1.1//EN" "http://www.w3.org/Graphics/SVG/1.1/DTD/svg11.dtd">
<svg version="1.1" id="Layer_1" xmlns="http://www.w3.org/2000/svg" xmlns:xlink="http://www.w3.org/1999/xlink" x="0px" y="0px"
	 width="32px" height="32px" viewBox="0 0 32 32" enable-background="new 0 0 32 32" xml:space="preserve">
<g>
	<defs>
		<rect id="SVGID_1_" width="32" height="32"/>
	</defs>
	<clipPath id="SVGID_2_">
		<use xlink:href="#SVGID_1_"  overflow="visible"/>
	</clipPath>
	<path clip-path="url(#SVGID_2_)" d="M26.857,24.186c-0.188-0.142-0.343-0.454-0.343-0.697V8.647c0-0.245,0.155-0.559,0.343-0.698
		c0,0,1.096-0.815,1.096-1.681c0-1.17-1.079-2.118-2.412-2.118c-0.703,0-1.417,0.458-1.417,0.458
		c-0.196,0.126-0.548,0.231-0.779,0.231h-2.175c-0.231,0-0.58-0.104-0.779-0.231c0,0-0.983-0.628-1.864-0.628h-0.184
		c-0.198,0.024-0.499-0.087-0.668-0.252c0,0-0.901-0.866-1.842-0.866c-0.944,0-1.845,0.873-1.845,0.873
		C13.817,3.898,13.5,4.01,13.284,3.979h-0.208c-0.879,0-1.862,0.628-1.862,0.628c-0.198,0.126-0.55,0.231-0.781,0.231H8.665
		c-0.229,0-0.58-0.104-0.777-0.231c0,0-0.713-0.458-1.416-0.458c-1.333,0-2.412,0.948-2.412,2.118c0,0.866,1.096,1.681,1.096,1.681
		c0.188,0.139,0.341,0.454,0.341,0.698v14.841c0,0.243-0.153,0.554-0.341,0.697c0,0-1.096,0.816-1.096,1.682
		c0,1.169,1.08,2.118,2.412,2.118c0.787,0,1.58-0.59,1.58-0.59c0.19-0.14,0.531-0.254,0.762-0.254h1.388
		c0.231,0,0.574,0.117,0.76,0.26c0,0,1.104,0.844,2.113,0.844c0.303,0,0.46-0.031,0.46-0.031c0.227-0.046,0.56,0.041,0.742,0.191
		c0,0,0.85,0.71,1.706,0.71c0.824,0,1.652-0.652,1.652-0.652c0.184-0.146,0.5-0.245,0.701-0.219h0.192
		c1.01,0,2.113-0.844,2.113-0.844c0.188-0.143,0.529-0.26,0.76-0.26h1.794c0.231,0,0.575,0.114,0.763,0.254
		c0,0,0.795,0.59,1.582,0.59c1.333,0,2.412-0.948,2.412-2.118C27.953,25.001,26.857,24.186,26.857,24.186 M23.254,23.361H8.509
		V8.616h14.745V23.361z"/>
</g>
</svg>
