<?xml version="1.0" encoding="utf-8"?>
<!-- Generator: Adobe Illustrator 16.0.0, SVG Export Plug-In . SVG Version: 6.00 Build 0)  -->
<!DOCTYPE svg PUBLIC "-//W3C//DTD SVG 1.1//EN" "http://www.w3.org/Graphics/SVG/1.1/DTD/svg11.dtd">
<svg version="1.1" id="Layer_1" xmlns="http://www.w3.org/2000/svg" xmlns:xlink="http://www.w3.org/1999/xlink" x="0px" y="0px"
	 width="32px" height="32px" viewBox="0 0 32 32" enable-background="new 0 0 32 32" xml:space="preserve">
<g>
	<defs>
		<rect id="SVGID_1_" width="32" height="32"/>
	</defs>
	<clipPath id="SVGID_2_">
		<use xlink:href="#SVGID_1_"  overflow="visible"/>
	</clipPath>
	<path clip-path="url(#SVGID_2_)" d="M21.982,16.645v8.571c0,0.863-0.702,1.565-1.565,1.565H5.808c-0.863,0-1.565-0.702-1.565-1.565
		V9.831c0-0.863,0.702-1.565,1.565-1.565h13.166c0.586-0.508,1.197-1.022,1.832-1.539c-0.127-0.016-0.256-0.026-0.388-0.026H5.808
		c-1.729,0-3.13,1.401-3.13,3.13v15.385c0,1.729,1.401,3.13,3.13,3.13h14.61c1.729,0,3.13-1.401,3.13-3.13V14.525
		C23.016,15.22,22.494,15.927,21.982,16.645"/>
	<path clip-path="url(#SVGID_2_)" d="M28.639,3.644c-7.338,4.499-12.663,10.176-15.056,13.024l-5.859-4.59l-2.587,2.085
		L15.261,24.46c1.743-4.463,7.261-13.186,14-19.384L28.639,3.644z"/>
</g>
</svg>
