<?xml version="1.0" encoding="utf-8"?>
<!-- Generator: Adobe Illustrator 16.0.0, SVG Export Plug-In . SVG Version: 6.00 Build 0)  -->
<!DOCTYPE svg PUBLIC "-//W3C//DTD SVG 1.1//EN" "http://www.w3.org/Graphics/SVG/1.1/DTD/svg11.dtd">
<svg version="1.1" id="Layer_1" xmlns="http://www.w3.org/2000/svg" xmlns:xlink="http://www.w3.org/1999/xlink" x="0px" y="0px"
	 width="97.51px" height="97.513px" viewBox="20.088 19.661 97.51 97.513" enable-background="new 20.088 19.661 97.51 97.513"
	 xml:space="preserve">
<g>
	<g>
		<path fill="#E84849" d="M68.843,107.421c-21.542,0-39.004-17.461-39.004-39.005c0-21.542,17.463-39.003,39.004-39.003
			c21.543,0,39.005,17.461,39.005,39.003C107.848,89.96,90.386,107.421,68.843,107.421z"/>
		<circle fill="#F6A2A3" cx="68.843" cy="68.417" r="33.698"/>
		<ellipse fill="#E9E9EA" cx="68.843" cy="68.417" rx="30.992" ry="30.278"/>
		<ellipse fill="#E9E9EA" cx="68.844" cy="70.471" rx="30.993" ry="30.278"/>
		<g>
			<circle fill="#626463" cx="69.082" cy="68.143" r="5.176"/>
			<path fill="#626463" d="M69.785,67.679c0.368,0.367,0.203,1.128-0.366,1.696l0,0c-0.57,0.57-1.33,0.734-1.697,0.366L55.7,57.724
				c-0.368-0.367-0.204-1.129,0.368-1.699l0,0c0.569-0.57,1.329-0.734,1.696-0.365L69.785,67.679z"/>
			<path fill="#626463" d="M69.244,69.375c-0.419,0.422-1.103,0.422-1.524,0l0,0c-0.42-0.419-0.421-1.103,0-1.524l17.429-17.428
				c0.421-0.422,1.104-0.422,1.525,0l0,0c0.42,0.418,0.42,1.104,0,1.524L69.244,69.375z"/>
		</g>
		<g>
			<path fill="none" d="M68.844,40.194c-15.307,0-28.011,10.842-30.531,25.089h61.062C96.853,51.035,84.149,40.194,68.844,40.194z"
				/>
			<path fill="#DDDFDF" d="M68.866,41.383c24.729,0.207,30.786,23.195,30.786,23.195c-2.307-14.928-15.233-26.439-30.809-26.439
				S40.387,49.651,38.083,64.579C38.083,64.579,44.136,41.177,68.866,41.383z"/>
		</g>
	</g>
</g>
</svg>
