<?xml version="1.0" encoding="utf-8"?>
<!-- Generator: Adobe Illustrator 16.0.0, SVG Export Plug-In . SVG Version: 6.00 Build 0)  -->
<!DOCTYPE svg PUBLIC "-//W3C//DTD SVG 1.1//EN" "http://www.w3.org/Graphics/SVG/1.1/DTD/svg11.dtd">
<svg version="1.1" id="Layer_1" xmlns="http://www.w3.org/2000/svg" xmlns:xlink="http://www.w3.org/1999/xlink" x="0px" y="0px"
	 width="97.51px" height="97.514px" viewBox="0 0 97.51 97.514" enable-background="new 0 0 97.51 97.514" xml:space="preserve">
<g>
	<g>
		<path d="M48.753,87.76c21.545,0,39.006-17.463,39.006-39.003c0-21.543-17.461-39.004-39.006-39.004
			c-21.541,0-39.002,17.461-39.002,39.004C9.751,70.3,27.212,87.76,48.753,87.76z M48.755,15.059
			c18.611,0,33.697,15.088,33.697,33.698c0,18.609-15.086,33.699-33.697,33.699S15.058,67.368,15.058,48.757
			C15.058,30.145,30.143,15.059,48.755,15.059z"/>
		<polyline points="33.142,30.282 30.204,33.034 46.062,48.892 35.843,59.098 38.552,62.141 51.817,48.897 		"/>
	</g>
</g>
<circle cx="48.791" cy="48.685" r="5.176"/>
</svg>
