<?xml version="1.0" encoding="utf-8"?>
<!-- Generator: Adobe Illustrator 16.0.0, SVG Export Plug-In . SVG Version: 6.00 Build 0)  -->
<!DOCTYPE svg PUBLIC "-//W3C//DTD SVG 1.1//EN" "http://www.w3.org/Graphics/SVG/1.1/DTD/svg11.dtd">
<svg version="1.1" id="Layer_1" xmlns="http://www.w3.org/2000/svg" xmlns:xlink="http://www.w3.org/1999/xlink" x="0px" y="0px"
	 width="32px" height="32px" viewBox="0 0 32 32" enable-background="new 0 0 32 32" xml:space="preserve">
<g opacity="0.5">
	<defs>
		<rect id="SVGID_1_" opacity="0.5" width="32" height="32"/>
	</defs>
	<clipPath id="SVGID_2_">
		<use xlink:href="#SVGID_1_"  overflow="visible"/>
	</clipPath>
	<path clip-path="url(#SVGID_2_)" fill-rule="evenodd" clip-rule="evenodd" d="M26.131,10.753c-0.508-0.507-0.737-1.187-0.692-1.851
		l-0.852-0.852c0,0-5.196-5.965-11.267-2.503l0.288,0.36l2.264-0.352l-1.866,0.851l0.35,0.438c2.52-0.379,7.061,1.435,5.563,3.311
		l-4.425,4.425l-0.01-0.01c-0.305,0.291-0.668,0.485-1.051,0.583L2.504,26.049l3.734,3.734l10.872-11.902
		c0.099-0.417,0.308-0.812,0.632-1.136c0.041-0.041,0.083-0.077,0.126-0.114l4.745-4.745h0c0.609,0.001,1.261,0.192,1.727,0.657
		c0.486,0.486,0.716,1.129,0.696,1.765l1.404,1.404l2.905-2.904l-1.363-1.363C27.318,11.49,26.639,11.261,26.131,10.753"/>
</g>
</svg>
