<?xml version="1.0" encoding="utf-8"?>
<!-- Generator: Adobe Illustrator 16.0.0, SVG Export Plug-In . SVG Version: 6.00 Build 0)  -->
<!DOCTYPE svg PUBLIC "-//W3C//DTD SVG 1.1//EN" "http://www.w3.org/Graphics/SVG/1.1/DTD/svg11.dtd">
<svg version="1.1" id="Layer_1" xmlns="http://www.w3.org/2000/svg" xmlns:xlink="http://www.w3.org/1999/xlink" x="0px" y="0px"
	 width="32px" height="32px" viewBox="0 0 32 32" enable-background="new 0 0 32 32" xml:space="preserve">
<g enable-background="new    ">
	<g>
		<defs>
			<rect id="SVGID_1_" width="32" height="32"/>
		</defs>
		<clipPath id="SVGID_2_">
			<use xlink:href="#SVGID_1_"  overflow="visible"/>
		</clipPath>
		<path clip-path="url(#SVGID_2_)" d="M26.131,10.753c-0.508-0.507-0.736-1.187-0.691-1.851L24.587,8.05
			c0,0-5.196-5.965-11.267-2.503l0.288,0.36l2.264-0.352l-1.866,0.851l0.35,0.438c2.52-0.379,7.061,1.435,5.563,3.312l-4.425,4.425
			l-0.01-0.01c-0.305,0.291-0.668,0.485-1.051,0.583L2.504,26.049l3.734,3.734l10.872-11.902c0.1-0.417,0.309-0.813,0.633-1.136
			c0.041-0.041,0.083-0.077,0.126-0.114l4.745-4.745l0,0c0.609,0.001,1.261,0.192,1.727,0.657c0.486,0.486,0.717,1.129,0.696,1.765
			l1.403,1.404l2.906-2.904l-1.363-1.363C27.318,11.49,26.639,11.261,26.131,10.753"/>
	</g>
</g>
</svg>
