<?xml version="1.0" encoding="utf-8"?>
<!-- Generator: Adobe Illustrator 16.0.0, SVG Export Plug-In . SVG Version: 6.00 Build 0)  -->
<!DOCTYPE svg PUBLIC "-//W3C//DTD SVG 1.1//EN" "http://www.w3.org/Graphics/SVG/1.1/DTD/svg11.dtd">
<svg version="1.1" id="Layer_1" xmlns="http://www.w3.org/2000/svg" xmlns:xlink="http://www.w3.org/1999/xlink" x="0px" y="0px"
	 width="32px" height="32px" viewBox="0 0 32 32" enable-background="new 0 0 32 32" xml:space="preserve">
<g>
	<defs>
		<rect id="SVGID_1_" width="32" height="32"/>
	</defs>
	<clipPath id="SVGID_2_">
		<use xlink:href="#SVGID_1_"  overflow="visible"/>
	</clipPath>
	<path clip-path="url(#SVGID_2_)" d="M7.956,28.113c-1.348,0-2.708-0.531-3.743-1.566s-1.567-2.396-1.567-3.743
		c-0.001-1.269,0.477-2.547,1.44-3.509l0.221-0.221L17.591,5.788c1.264-1.266,2.943-1.894,4.616-1.892
		c1.778-0.001,3.576,0.7,4.949,2.072c1.371,1.372,2.072,3.168,2.072,4.947c0.001,1.674-0.626,3.352-1.892,4.617L16.182,26.686
		l-0.83,0.83l-1.66-1.66l11.983-11.983c0.803-0.804,1.202-1.856,1.204-2.957c0-1.165-0.458-2.36-1.384-3.287
		c-0.927-0.928-2.123-1.385-3.289-1.386c-1.099,0.002-2.151,0.401-2.955,1.204L5.965,20.733l-0.221,0.221
		c-0.501,0.502-0.75,1.155-0.752,1.849c0.001,0.735,0.288,1.492,0.88,2.084c0.591,0.59,1.348,0.877,2.083,0.878
		c0.694-0.002,1.347-0.251,1.849-0.751l9.4-9.4l0.788-0.787c0.188-0.19,0.283-0.432,0.284-0.708c0-0.292-0.114-0.598-0.357-0.842
		c-0.245-0.245-0.551-0.358-0.843-0.358c-0.276,0.002-0.518,0.096-0.708,0.285l-8.665,8.665l-1.66-1.66l8.664-8.664
		c0.65-0.652,1.518-0.975,2.369-0.973c0.904-0.001,1.813,0.356,2.503,1.046c0.688,0.689,1.045,1.597,1.045,2.501
		c0.001,0.85-0.321,1.718-0.973,2.368l-0.788,0.787l-9.4,9.401c-0.96,0.961-2.236,1.439-3.501,1.438H7.956z"/>
</g>
</svg>
