<?xml version="1.0" encoding="utf-8"?>
<!-- Generator: Adobe Illustrator 16.0.0, SVG Export Plug-In . SVG Version: 6.00 Build 0)  -->
<!DOCTYPE svg PUBLIC "-//W3C//DTD SVG 1.1//EN" "http://www.w3.org/Graphics/SVG/1.1/DTD/svg11.dtd">
<svg version="1.1" id="Layer_1" xmlns="http://www.w3.org/2000/svg" xmlns:xlink="http://www.w3.org/1999/xlink" x="0px" y="0px"
	 width="32px" height="32px" viewBox="0 0 32 32" enable-background="new 0 0 32 32" xml:space="preserve">
<g>
	<defs>
		<rect id="SVGID_1_" width="32" height="32"/>
	</defs>
	<clipPath id="SVGID_2_">
		<use xlink:href="#SVGID_1_"  overflow="visible"/>
	</clipPath>
	<path clip-path="url(#SVGID_2_)" d="M2.638,3.965L27.95,29.277l1.36-1.36L3.998,2.604L2.638,3.965z M29.535,6.038l-3.673-3.672
		l-3.124,3.123l3.673,3.673L29.535,6.038z M19.589,15.983l5.162-5.162l-1.659-1.658l-5.162,5.162L19.589,15.983z M11.16,21.096
		L10.164,20.1l3.198-3.198l-1.018-1.018l-6.947,6.947l0.012,0.012l-2.995,6.673l6.645-3.024l0.011,0.011l0.03-0.03l6.917-6.917
		l-1.659-1.659L11.16,21.096z M8.706,24.786l-2.898,1.319l1.306-2.911l1.462-1.462l0.21,1.394l1.381,0.198L8.706,24.786z
		 M22.097,8.167l-1.018-1.018l-5.162,5.162l1.018,1.017L22.097,8.167z"/>
</g>
</svg>
