<?xml version="1.0" encoding="utf-8"?>
<!-- Generator: Adobe Illustrator 16.0.0, SVG Export Plug-In . SVG Version: 6.00 Build 0)  -->
<!DOCTYPE svg PUBLIC "-//W3C//DTD SVG 1.1//EN" "http://www.w3.org/Graphics/SVG/1.1/DTD/svg11.dtd">
<svg version="1.1" id="Layer_1" xmlns="http://www.w3.org/2000/svg" xmlns:xlink="http://www.w3.org/1999/xlink" x="0px" y="0px"
	 width="32px" height="32px" viewBox="0 0 32 32" enable-background="new 0 0 32 32" xml:space="preserve">
<g>
	<defs>
		<rect id="SVGID_1_" width="32" height="32"/>
	</defs>
	<clipPath id="SVGID_2_">
		<use xlink:href="#SVGID_1_"  overflow="visible"/>
	</clipPath>
	<path clip-path="url(#SVGID_2_)" d="M20.696,6.148c0.23,0.925,0.253,1.002,0.231,1.952c-0.008,0.366-0.219,2.059-0.162,2.578
		c0.047,0.428,0.154,0.462,0.323,0.815c0.294,0.614,0.196,1.461,0.083,2.08c-0.062,0.339-0.192,0.821-0.391,1.098
		c-0.219,0.305-0.656,0.307-0.85,0.663c-0.279,0.512-0.122,1.23-0.297,1.784c-0.2,0.627-0.708,0.671-0.746,1.492
		c0.249,0.035,0.498,0.071,0.746,0.106c0.25,0.53,0.706,1.597,1.172,1.918c0.391,0.106,0.781,0.213,1.172,0.319
		c1.369,0.562,2.891,1.233,4.263,1.812c1.25,0.527,2.746,0.715,3.197,2.025c0,0.889,0.084,2.99,0.061,4.156H2.282
		c-0.023-1.166,0.061-3.267,0.061-4.156c0.452-1.31,1.948-1.498,3.197-2.025c1.372-0.579,2.894-1.25,4.263-1.812
		c0.391-0.106,0.781-0.213,1.172-0.319c0.466-0.321,0.923-1.388,1.172-1.918l0.555-0.135c-0.126-0.701-0.56-0.755-0.741-1.251
		c-0.071-0.746-0.142-1.492-0.213-2.238c0.003,0.035-0.51-0.093-0.577-0.135c-0.724-0.454-0.739-2.295-0.808-3.062
		c-0.032-0.35,0.455-0.637,0.32-1.279c-0.793-3.759,0.343-5.518,2.139-6.101c1.247-0.505,3.575-1.442,5.746-0.106l0.539,0.5
		l0.872,0.15C20.417,5.311,20.696,6.148,20.696,6.148"/>
</g>
</svg>
