<?xml version="1.0" encoding="utf-8"?>
<!-- Generator: Adobe Illustrator 16.0.0, SVG Export Plug-In . SVG Version: 6.00 Build 0)  -->
<!DOCTYPE svg PUBLIC "-//W3C//DTD SVG 1.1//EN" "http://www.w3.org/Graphics/SVG/1.1/DTD/svg11.dtd">
<svg version="1.1" id="Layer_1" xmlns="http://www.w3.org/2000/svg" xmlns:xlink="http://www.w3.org/1999/xlink" x="0px" y="0px"
	 width="32px" height="32px" viewBox="0 0 32 32" enable-background="new 0 0 32 32" xml:space="preserve">
<g>
	<defs>
		<rect id="SVGID_1_" width="32" height="32"/>
	</defs>
	<clipPath id="SVGID_2_">
		<use xlink:href="#SVGID_1_"  overflow="visible"/>
	</clipPath>
	<path clip-path="url(#SVGID_2_)" d="M15.405,18.707l-5.35-5.69l-3.638,6.729v1.854h18.07c-2.302-1.984-7.155-6.23-7.155-6.23
		L15.405,18.707z M21.688,14.424c1.004,0,1.817-0.813,1.817-1.816c0-1.002-0.813-1.816-1.817-1.816
		c-1.001,0-1.815,0.814-1.815,1.816C19.873,13.611,20.687,14.424,21.688,14.424 M2.359,25.579h27.168V6.419H2.359V25.579z
		 M27.114,23.164H4.852L4.851,8.911h22.183v0.001h0.08V23.164z"/>
</g>
</svg>
