<?xml version="1.0" encoding="utf-8"?>
<!-- Generator: Adobe Illustrator 16.0.0, SVG Export Plug-In . SVG Version: 6.00 Build 0)  -->
<!DOCTYPE svg PUBLIC "-//W3C//DTD SVG 1.1//EN" "http://www.w3.org/Graphics/SVG/1.1/DTD/svg11.dtd">
<svg version="1.1" id="Layer_1" xmlns="http://www.w3.org/2000/svg" xmlns:xlink="http://www.w3.org/1999/xlink" x="0px" y="0px"
	 width="32px" height="32px" viewBox="0 0 32 32" enable-background="new 0 0 32 32" xml:space="preserve">
<g>
	<defs>
		<rect id="SVGID_1_" width="32" height="32"/>
	</defs>
	<clipPath id="SVGID_2_">
		<use xlink:href="#SVGID_1_"  overflow="visible"/>
	</clipPath>
	<path clip-path="url(#SVGID_2_)" d="M22.505,20.004c-0.355,0.428-0.739,0.849-1.146,1.256c-0.439,0.438-0.892,0.847-1.352,1.223
		l7.452,4.992L22.505,20.004 M7.645,7.67c-2.157,2.158-3.124,4.689-2.159,5.654c0.292,0.292,0.726,0.406,1.249,0.366
		c0.521,0.016,0.992,0.082,1.416,0.188l3.507,3.506c0.529,1.753,0.316,3.469,0.316,3.469l0.012-0.012
		c-0.208,0.998-0.085,1.828,0.43,2.343c1.353,1.352,4.881,0.015,7.883-2.986c3.001-3.001,4.339-6.531,2.986-7.883
		c-0.61-0.61-1.663-0.671-2.911-0.281c-0.59,0.021-1.689,0-2.831-0.325l-3.723-3.722c-0.084-0.368-0.138-0.769-0.158-1.205
		c0.045-0.533-0.069-0.975-0.364-1.271C12.334,4.546,9.802,5.513,7.645,7.67"/>
</g>
</svg>
