<?xml version="1.0" encoding="utf-8"?>
<!-- Generator: Adobe Illustrator 16.0.0, SVG Export Plug-In . SVG Version: 6.00 Build 0)  -->
<!DOCTYPE svg PUBLIC "-//W3C//DTD SVG 1.1//EN" "http://www.w3.org/Graphics/SVG/1.1/DTD/svg11.dtd">
<svg version="1.1" id="Layer_1" xmlns="http://www.w3.org/2000/svg" xmlns:xlink="http://www.w3.org/1999/xlink" x="0px" y="0px"
	 width="32px" height="32px" viewBox="0 0 32 32" enable-background="new 0 0 32 32" xml:space="preserve">
<g>
	<defs>
		<rect id="SVGID_1_" width="32" height="32"/>
	</defs>
	<clipPath id="SVGID_2_">
		<use xlink:href="#SVGID_1_"  overflow="visible"/>
	</clipPath>
	<path clip-path="url(#SVGID_2_)" d="M15.991,9.639c0.237,0,0.294-0.089,0.294-0.089s-0.025-0.706-0.294-0.706
		c-0.272,0-0.294,0.706-0.294,0.706S15.751,9.639,15.991,9.639 M14.795,9.079c0.145,0,0.382-0.064,0.527-0.143
		c0.147-0.08,0.262-0.276,0.26-0.439c-0.002-0.163-0.094-0.36-0.207-0.44c-0.11-0.079-0.355-0.094-0.546-0.03
		c-0.192,0.063-0.368,0.23-0.395,0.374c-0.024,0.141-0.014,0.353,0.025,0.469C14.499,8.984,14.65,9.079,14.795,9.079 M16.657,8.936
		c0.147,0.078,0.382,0.143,0.527,0.143c0.147,0,0.296-0.094,0.337-0.209c0.037-0.116,0.049-0.328,0.022-0.469
		c-0.026-0.144-0.2-0.311-0.393-0.374c-0.19-0.064-0.437-0.049-0.548,0.03c-0.11,0.08-0.202,0.277-0.206,0.44
		C16.396,8.66,16.512,8.856,16.657,8.936 M10.139,11.9h3.779c1.633,0.501,3.769,0.976,6.227,1.099
		c-0.01-0.257,0.023-0.689,0.06-1.099h1.827c1.458,0,3.011-0.867,3.452-1.926c0.439-1.061-0.309-0.677-1.662-0.416
		c-1.351,0.261-3.101-2.41-3.881-3.396c-0.785-0.985-2.557-2.74-3.945-2.74c-1.386,0-3.172,1.675-3.971,2.563
		C11.226,6.871,9.453,9.529,8.083,9.35c-1.37-0.18-2.064-0.483-1.541,0.593C7.063,11.02,8.684,11.9,10.139,11.9 M15.991,5.431
		c1.363,0,2.209,1.008,2.209,1.693c0,0.686-0.259,1.087-0.327,1.286c-0.137,0.406,0.026,0.604,0.026,0.604s-0.049,0.418-0.182,0.603
		c-0.133,0.186-0.785-0.123-0.785,0.574c0,0-0.249,0.187-0.936,0.187c-0.687,0-0.95-0.187-0.95-0.187
		c0-0.697-0.652-0.388-0.785-0.574c-0.133-0.185-0.18-0.603-0.18-0.603s0.162-0.198,0.027-0.604
		c-0.067-0.199-0.329-0.601-0.329-1.286C13.779,6.439,14.625,5.431,15.991,5.431 M27.524,25.099
		c-0.385-1.113-1.656-1.272-2.719-1.72c-1.167-0.492-2.458-1.063-3.624-1.541c-0.331-0.09-0.665-0.181-0.996-0.271
		c-0.396-0.273-0.785-1.18-0.997-1.631c-0.213-0.03-0.423-0.06-0.636-0.091c0.035-0.696,0.466-0.734,0.636-1.267
		c0.149-0.47,0.016-1.082,0.253-1.516c0.164-0.302,0.535-0.306,0.721-0.564c0.167-0.235,0.28-0.645,0.333-0.934
		c0.077-0.427,0.143-0.984,0.033-1.457c-0.511-0.018-1.012-0.048-1.497-0.093l-0.331,1.124c-0.126,0.424-0.588,0.726-1.028,0.672
		l-0.772-0.096c-0.438-0.055-0.803-0.46-0.812-0.903l-0.019-1.15c0-0.03,0.006-0.056,0.008-0.085
		c-1.991-0.409-3.587-0.971-4.65-1.407c0.035,0.278,0.084,0.572,0.149,0.883c0.116,0.545-0.298,0.788-0.272,1.086
		c0.059,0.651,0.072,2.217,0.687,2.603c0.057,0.036,0.495,0.145,0.49,0.116c0.062,0.633,0.123,1.267,0.182,1.901
		c0.153,0.422,0.523,0.468,0.63,1.064l-0.472,0.114c-0.213,0.451-0.601,1.357-0.996,1.631c-0.333,0.09-0.664,0.181-0.999,0.271
		c-1.163,0.478-2.455,1.049-3.622,1.541c-1.063,0.448-2.334,0.607-2.716,1.72c0,0.757-0.073,2.542-0.053,3.533h23.137
		C27.596,27.641,27.524,25.855,27.524,25.099"/>
</g>
</svg>
