<?xml version="1.0" encoding="utf-8"?>
<!-- Generator: Adobe Illustrator 16.0.0, SVG Export Plug-In . SVG Version: 6.00 Build 0)  -->
<!DOCTYPE svg PUBLIC "-//W3C//DTD SVG 1.1//EN" "http://www.w3.org/Graphics/SVG/1.1/DTD/svg11.dtd">
<svg version="1.1" id="Layer_1" xmlns="http://www.w3.org/2000/svg" xmlns:xlink="http://www.w3.org/1999/xlink" x="0px" y="0px"
	 width="32px" height="32px" viewBox="0 0 32 32" enable-background="new 0 0 32 32" xml:space="preserve">
<g>
	<defs>
		<rect id="SVGID_1_" width="32" height="32"/>
	</defs>
	<clipPath id="SVGID_2_">
		<use xlink:href="#SVGID_1_"  overflow="visible"/>
	</clipPath>
	<path clip-path="url(#SVGID_2_)" d="M15.991,2.381c7.519,0,13.613,6.095,13.613,13.613s-6.095,13.613-13.613,13.613
		c-7.518,0-13.613-6.095-13.613-13.613S8.473,2.381,15.991,2.381 M15.991,4.728c-6.212,0-11.266,5.054-11.266,11.266
		c0,6.212,5.054,11.266,11.266,11.266s11.266-5.054,11.266-11.266C27.257,9.782,22.203,4.728,15.991,4.728"/>
	<path clip-path="url(#SVGID_2_)" d="M12.422,8.362c0.921-0.593,2.054-0.89,3.398-0.89c1.766,0,3.232,0.421,4.4,1.266
		c1.167,0.843,1.751,2.093,1.751,3.75c0,1.015-0.253,1.871-0.759,2.566c-0.296,0.422-0.865,0.961-1.707,1.617l-0.83,0.645
		c-0.452,0.352-0.752,0.762-0.9,1.23c-0.093,0.297-0.144,0.758-0.152,1.382H14.45c0.046-1.32,0.171-2.232,0.374-2.736
		c0.203-0.504,0.725-1.084,1.565-1.74l0.853-0.668c0.28-0.21,0.506-0.441,0.678-0.691c0.312-0.43,0.467-0.902,0.467-1.418
		c0-0.594-0.173-1.135-0.521-1.623c-0.347-0.488-0.979-0.732-1.899-0.732c-0.904,0-1.545,0.301-1.923,0.902
		s-0.567,1.227-0.567,1.875H10.09C10.184,10.87,10.961,9.292,12.422,8.362 M14.368,21.533h3.503v3.386h-3.503V21.533z"/>
</g>
</svg>
