<?xml version="1.0" encoding="utf-8"?>
<!-- Generator: Adobe Illustrator 16.0.0, SVG Export Plug-In . SVG Version: 6.00 Build 0)  -->
<!DOCTYPE svg PUBLIC "-//W3C//DTD SVG 1.1//EN" "http://www.w3.org/Graphics/SVG/1.1/DTD/svg11.dtd">
<svg version="1.1" id="Layer_1" xmlns="http://www.w3.org/2000/svg" xmlns:xlink="http://www.w3.org/1999/xlink" x="0px" y="0px"
	 width="32px" height="32px" viewBox="0 0 32 32" enable-background="new 0 0 32 32" xml:space="preserve">
<rect fill="none" width="32" height="32"/>
<path d="M16.065,4.322C8.53,4.174,2.328,8.817,2.212,14.693c-0.04,2.042,0.661,3.965,1.909,5.612
	c2.146,2.756-0.196,7.497-0.196,7.497l6.916-2.979c1.49,0.471,3.109,0.745,4.806,0.778c7.535,0.147,13.737-4.496,13.853-10.372
	C29.616,9.354,23.602,4.471,16.065,4.322z M17.249,22.797h-3.153v-3.048h3.153V22.797z M20.257,13.917
	c-0.267,0.38-0.778,0.865-1.535,1.456l-0.747,0.58c-0.406,0.317-0.677,0.686-0.81,1.107c-0.084,0.268-0.13,0.683-0.137,1.245H14.17
	c0.042-1.188,0.154-2.009,0.336-2.463s0.652-0.976,1.409-1.566l0.768-0.601c0.252-0.19,0.455-0.397,0.609-0.622
	c0.28-0.387,0.421-0.813,0.421-1.276c0-0.534-0.156-1.021-0.469-1.461c-0.312-0.439-0.882-0.659-1.709-0.659
	c-0.814,0-1.391,0.271-1.731,0.812c-0.34,0.542-0.51,1.104-0.51,1.688h-3.048c0.084-2.004,0.784-3.424,2.099-4.261
	c0.83-0.534,1.849-0.802,3.059-0.802c1.589,0,2.908,0.38,3.96,1.139c1.051,0.759,1.576,1.884,1.576,3.375
	C20.94,12.521,20.713,13.292,20.257,13.917z"/>
</svg>
