<?xml version="1.0" encoding="utf-8"?>
<!-- Generator: Adobe Illustrator 16.0.0, SVG Export Plug-In . SVG Version: 6.00 Build 0)  -->
<!DOCTYPE svg PUBLIC "-//W3C//DTD SVG 1.1//EN" "http://www.w3.org/Graphics/SVG/1.1/DTD/svg11.dtd">
<svg version="1.1" id="Layer_1" xmlns="http://www.w3.org/2000/svg" xmlns:xlink="http://www.w3.org/1999/xlink" x="0px" y="0px"
	 width="32px" height="32px" viewBox="0 0 32 32" enable-background="new 0 0 32 32" xml:space="preserve">
<g>
	<defs>
		<rect id="SVGID_1_" width="32" height="32"/>
	</defs>
	<clipPath id="SVGID_2_">
		<use xlink:href="#SVGID_1_"  overflow="visible"/>
	</clipPath>
	<path clip-path="url(#SVGID_2_)" d="M18.363,15.626l-4.049,4.048l14.63,1.401l-1.4-14.63l-3.971,3.972
		c-2.271-1.564-4.973-2.441-7.771-2.448c-2.37-0.003-4.846,0.662-6.976,2.175c-0.661,0.466-1.28,1.013-1.847,1.629
		c0.727-0.251,1.497-0.378,2.29-0.373C12.172,11.412,15.342,12.951,18.363,15.626 M10.269,25.67v-2.214
		c0-2.736,0.543-4.578,1.213-5.762c0.68-1.186,1.452-1.792,2.343-2.179c0.44-0.184,0.918-0.303,1.425-0.353
		c-2.138-1.455-4.224-2.213-5.982-2.204c-1.815,0.015-3.292,0.728-4.448,2.404c-0.219,0.323-0.425,0.684-0.613,1.083
		c-0.051,0.144-0.102,0.287-0.148,0.433c-0.634,1.937-0.957,4.126-0.957,6.578v2.214H10.269z"/>
</g>
</svg>
