<?xml version="1.0" encoding="utf-8"?>
<!-- Generator: Adobe Illustrator 16.0.0, SVG Export Plug-In . SVG Version: 6.00 Build 0)  -->
<!DOCTYPE svg PUBLIC "-//W3C//DTD SVG 1.1//EN" "http://www.w3.org/Graphics/SVG/1.1/DTD/svg11.dtd">
<svg version="1.1" id="Layer_1" xmlns="http://www.w3.org/2000/svg" xmlns:xlink="http://www.w3.org/1999/xlink" x="0px" y="0px"
	 width="32px" height="32px" viewBox="0 0 32 32" enable-background="new 0 0 32 32" xml:space="preserve">
<g opacity="0.5">
	<defs>
		<rect id="SVGID_1_" opacity="0.5" width="32" height="32"/>
	</defs>
	<clipPath id="SVGID_2_">
		<use xlink:href="#SVGID_1_"  overflow="visible"/>
	</clipPath>
	<path clip-path="url(#SVGID_2_)" d="M9.82,27.58h3.196V16.229L9.82,19.427V27.58z M5.425,23.822v3.758h3.197v-6.956l-2.208,2.208
		L5.425,23.822z M14.214,27.578h3.197v-8.775l-3.197-3.196V27.578z M18.608,19.176v8.404h3.196V15.979l-2.506,2.507L18.608,19.176z
		 M23.005,27.58h3.194V11.584l-3.194,3.197V27.58z M21.733,5.085l2.12,2.122l0.012,0.012l-5.668,5.67l-4.271-4.271L3.05,19.494
		l2.261,2.259l8.615-8.615l4.271,4.271l7.928-7.929l2.109,2.109l0.688-7.19L21.733,5.085z"/>
</g>
</svg>
