<?xml version="1.0" encoding="utf-8"?>
<!-- Generator: Adobe Illustrator 16.0.0, SVG Export Plug-In . SVG Version: 6.00 Build 0)  -->
<!DOCTYPE svg PUBLIC "-//W3C//DTD SVG 1.1//EN" "http://www.w3.org/Graphics/SVG/1.1/DTD/svg11.dtd">
<svg version="1.1" id="Layer_1" xmlns="http://www.w3.org/2000/svg" xmlns:xlink="http://www.w3.org/1999/xlink" x="0px" y="0px"
	 width="32px" height="32px" viewBox="0 0 32 32" enable-background="new 0 0 32 32" xml:space="preserve">
<g>
	<defs>
		<rect id="SVGID_1_" width="32" height="32"/>
	</defs>
	<clipPath id="SVGID_2_">
		<use xlink:href="#SVGID_1_"  overflow="visible"/>
	</clipPath>
	<path clip-path="url(#SVGID_2_)" d="M24.261,15.306c-0.147-1.764-0.844-3.37-1.923-4.646l-1.768,1.768l-0.979-0.977l1.768-1.767
		c-1.273-1.079-2.88-1.778-4.644-1.924v2.5h-1.382v-2.5c-1.764,0.146-3.37,0.845-4.646,1.924l1.768,1.768l-0.977,0.976l-1.768-1.768
		c-1.079,1.275-1.776,2.882-1.923,4.646h2.502v1.382H7.788c0.147,1.764,0.844,3.368,1.923,4.645l1.768-1.768l0.977,0.977
		l-1.768,1.767c1.275,1.08,2.882,1.778,4.646,1.924v-2.5h1.382v2.5c1.764-0.146,3.371-0.844,4.644-1.924l-1.768-1.767l0.977-0.977
		l1.77,1.768c1.079-1.276,1.776-2.881,1.923-4.646h-2.5v-1.381H24.261z M16.024,18.572c-1.422,0-2.575-1.152-2.575-2.575
		c0-1.422,1.153-2.575,2.575-2.575s2.575,1.153,2.575,2.575C18.6,17.42,17.447,18.572,16.024,18.572 M16.024,2.443
		c-7.487,0-13.553,6.068-13.553,13.554c0,7.485,6.066,13.553,13.553,13.553c7.484,0,13.553-6.068,13.553-13.553
		C29.577,8.512,23.509,2.443,16.024,2.443 M16.024,27.635c-6.418,0-11.638-5.221-11.638-11.638c0-5.612,3.992-10.309,9.287-11.399
		l2.351,2.98l2.351-2.98c5.293,1.09,9.287,5.787,9.287,11.399C27.662,22.414,22.44,27.635,16.024,27.635"/>
</g>
</svg>
