<?xml version="1.0" encoding="utf-8"?>
<!-- Generator: Adobe Illustrator 16.0.0, SVG Export Plug-In . SVG Version: 6.00 Build 0)  -->
<!DOCTYPE svg PUBLIC "-//W3C//DTD SVG 1.1//EN" "http://www.w3.org/Graphics/SVG/1.1/DTD/svg11.dtd">
<svg version="1.1" id="Layer_1" xmlns="http://www.w3.org/2000/svg" xmlns:xlink="http://www.w3.org/1999/xlink" x="0px" y="0px"
	 width="32px" height="32px" viewBox="0 0 32 32" enable-background="new 0 0 32 32" xml:space="preserve">
<g>
	<defs>
		<rect id="SVGID_1_" width="32" height="32"/>
	</defs>
	<clipPath id="SVGID_2_">
		<use xlink:href="#SVGID_1_"  overflow="visible"/>
	</clipPath>
	<path clip-path="url(#SVGID_2_)" d="M21.14,5.042c-0.871-0.871-1.952-1.514-3.126-1.861c-0.671-0.197-1.37-0.295-2.078-0.295
		c-1.966,0-3.812,0.764-5.202,2.156c-1.391,1.388-2.154,3.235-2.154,5.2l0.031,0.676c0.092,1.011,0.388,1.975,0.877,2.864
		c0.005,0.049,2.77,5.007,2.77,8.105l0.095,0.917c0.149,0.611,0.461,0.923,0.928,0.923h5.311c0.467,0,0.778-0.312,0.928-0.923
		l0.095-0.917c0-3.098,2.764-8.056,2.793-8.105c0.467-0.889,0.762-1.854,0.853-2.864l0.032-0.676
		C23.292,8.276,22.527,6.429,21.14,5.042 M21.391,10.787c-0.07,0.725-0.283,1.433-0.632,2.104c-0.295,0.528-2.964,5.407-3.017,8.892
		l-0.007,0.071h-0.862v-3.417h-1.874v3.417h-0.861l-0.007-0.071c-0.04-2.611-1.527-6.049-2.815-8.544l-0.003-0.029l-0.183-0.332
		c-0.358-0.65-0.576-1.354-0.648-2.092l-0.027-0.583c0.01-1.451,0.579-2.812,1.605-3.837c1.036-1.036,2.413-1.607,3.877-1.607
		c0.532,0,1.054,0.074,1.546,0.218c0.876,0.259,1.683,0.74,2.333,1.39c1.024,1.024,1.593,2.384,1.604,3.833L21.391,10.787z
		 M12.946,26.872h5.979v-1.873h-5.979V26.872z M14.245,29.031h3.381v-1.059h-3.381V29.031z"/>
</g>
</svg>
