<?xml version="1.0" encoding="utf-8"?>
<!-- Generator: Adobe Illustrator 16.0.0, SVG Export Plug-In . SVG Version: 6.00 Build 0)  -->
<!DOCTYPE svg PUBLIC "-//W3C//DTD SVG 1.1//EN" "http://www.w3.org/Graphics/SVG/1.1/DTD/svg11.dtd">
<svg version="1.1" id="Layer_1" xmlns="http://www.w3.org/2000/svg" xmlns:xlink="http://www.w3.org/1999/xlink" x="0px" y="0px"
	 width="32px" height="32px" viewBox="0 0 32 32" enable-background="new 0 0 32 32" xml:space="preserve">
<g>
	<defs>
		<rect id="SVGID_1_" width="32" height="32"/>
	</defs>
	<clipPath id="SVGID_2_">
		<use xlink:href="#SVGID_1_"  overflow="visible"/>
	</clipPath>
	<path clip-path="url(#SVGID_2_)" d="M5.93,18.493v4.183l9.128,5.269v-11.96l-4.884,5.13L5.93,18.493z M14.167,15.271L6.57,10.886
		l-4.123,4.122l7.54,4.656L14.167,15.271z M17.915,15.286l4.167,4.377l7.54-4.656l-4.108-4.109L17.915,15.286z M16.974,15.943
		v12.001l9.128-5.269v-4.16l-4.207,2.598L16.974,15.943z M29.784,8.133l-7.446-4.066l-5.099,1.41l8.242,4.667L29.784,8.133z
		 M14.823,5.477l-5.099-1.41L2.279,8.133l4.3,2.011L14.823,5.477z"/>
</g>
</svg>
