<?xml version="1.0" encoding="utf-8"?>
<!-- Generator: Adobe Illustrator 16.0.0, SVG Export Plug-In . SVG Version: 6.00 Build 0)  -->
<!DOCTYPE svg PUBLIC "-//W3C//DTD SVG 1.1//EN" "http://www.w3.org/Graphics/SVG/1.1/DTD/svg11.dtd">
<svg version="1.1" id="Layer_1" xmlns="http://www.w3.org/2000/svg" xmlns:xlink="http://www.w3.org/1999/xlink" x="0px" y="0px"
	 width="32px" height="32px" viewBox="0 0 32 32" enable-background="new 0 0 32 32" xml:space="preserve">
<g>
	<defs>
		<rect id="SVGID_1_" width="32" height="32"/>
	</defs>
	<clipPath id="SVGID_2_">
		<use xlink:href="#SVGID_1_"  overflow="visible"/>
	</clipPath>
	<path clip-path="url(#SVGID_2_)" d="M16.375,14.984c0,1.003,0.187,1.815,1.189,1.815h5.537c1.003,0,1.189-0.812,1.189-1.815
		c0-1.002-0.186-1.815-1.189-1.815h-5.537C16.561,13.169,16.375,13.982,16.375,14.984"/>
	<path clip-path="url(#SVGID_2_)" d="M15.369,19.288c0,1.002,0.187,1.815,1.188,1.815h7.41c1.003,0,1.189-0.813,1.189-1.815
		c0-1.003-0.187-1.815-1.189-1.815h-7.41C15.556,17.472,15.369,18.285,15.369,19.288"/>
	<path clip-path="url(#SVGID_2_)" d="M16.361,23.656c0,1.002,0.187,1.815,1.188,1.815h5.845c1.003,0,1.19-0.813,1.19-1.815
		c0-1.003-0.187-1.815-1.19-1.815h-5.845C16.548,21.841,16.361,22.653,16.361,23.656"/>
	<path clip-path="url(#SVGID_2_)" d="M17.326,28.116c0,1.002,0.187,1.815,1.188,1.815h3.33c1.002,0,1.189-0.813,1.189-1.815
		c0-1.003-0.188-1.815-1.189-1.815h-3.33C17.512,26.301,17.326,27.113,17.326,28.116"/>
	<path clip-path="url(#SVGID_2_)" d="M16.864,29.708c-0.204-0.389-0.294-0.88-0.294-1.591c0-0.712,0.091-1.203,0.294-1.592
		c0.07-0.135,0.167-0.277,0.297-0.409c-0.707-0.092-1.075-0.51-1.262-0.869c-0.203-0.389-0.294-0.879-0.294-1.591
		c0-0.712,0.091-1.203,0.294-1.592c0.056-0.106,0.128-0.217,0.219-0.324c-0.673-0.105-1.028-0.512-1.21-0.861
		c-0.204-0.389-0.294-0.88-0.294-1.591c0-0.712,0.091-1.203,0.294-1.592c0.18-0.343,0.525-0.741,1.176-0.855
		c-0.069-0.088-0.125-0.178-0.171-0.265c-0.204-0.389-0.294-0.88-0.294-1.591c0-0.712,0.091-1.203,0.294-1.592
		c0.212-0.405,0.655-0.888,1.559-0.888h1.129c0.116-0.841,2.444-2.64,2.444-6.319c0-4.032-4.289-3.566-4.289-3.566v2.502
		c-0.752,2.79-5.746,7.096-7.16,8.272c-1.674,0.855-2.714,2.525-2.714,4.583v6.137c0,3.176,2.575,5.751,5.751,5.751h4.325
		C16.922,29.813,16.891,29.76,16.864,29.708"/>
</g>
</svg>
