<?xml version="1.0" encoding="utf-8"?>
<!-- Generator: Adobe Illustrator 16.0.0, SVG Export Plug-In . SVG Version: 6.00 Build 0)  -->
<!DOCTYPE svg PUBLIC "-//W3C//DTD SVG 1.1//EN" "http://www.w3.org/Graphics/SVG/1.1/DTD/svg11.dtd">
<svg version="1.1" id="Layer_1" xmlns="http://www.w3.org/2000/svg" xmlns:xlink="http://www.w3.org/1999/xlink" x="0px" y="0px"
	 width="32px" height="32px" viewBox="0 0 32 32" enable-background="new 0 0 32 32" xml:space="preserve">
<g>
	<defs>
		<rect id="SVGID_1_" x="3.2" y="3.2" width="25.6" height="25.6"/>
	</defs>
	<clipPath id="SVGID_2_">
		<use xlink:href="#SVGID_1_"  overflow="visible"/>
	</clipPath>
	<path clip-path="url(#SVGID_2_)" d="M9.39,26.986h13.158l1.262-14.382H8.128L9.39,26.986z M24.451,7.722h-4.112V7.254
		c0-1.247-1.01-2.257-2.257-2.257h-4.225c-1.248,0-2.257,1.01-2.258,2.257v0.468H7.486c-0.587,0-1.063,0.476-1.063,1.064v2.566
		h19.092V8.786C25.515,8.198,25.038,7.722,24.451,7.722 M18.8,7.722h-5.662V7.254c0-0.396,0.322-0.718,0.718-0.719h4.225
		c0.396,0.001,0.718,0.322,0.719,0.719V7.722z"/>
</g>
</svg>
