<?xml version="1.0" encoding="utf-8"?>
<!-- Generator: Adobe Illustrator 16.0.0, SVG Export Plug-In . SVG Version: 6.00 Build 0)  -->
<!DOCTYPE svg PUBLIC "-//W3C//DTD SVG 1.1//EN" "http://www.w3.org/Graphics/SVG/1.1/DTD/svg11.dtd">
<svg version="1.1" id="Layer_1" xmlns="http://www.w3.org/2000/svg" xmlns:xlink="http://www.w3.org/1999/xlink" x="0px" y="0px"
	 width="32px" height="32px" viewBox="0 0 32 32" enable-background="new 0 0 32 32" xml:space="preserve">
<g>
	<defs>
		<rect id="SVGID_1_" width="32" height="32"/>
	</defs>
	<clipPath id="SVGID_2_">
		<use xlink:href="#SVGID_1_"  overflow="visible"/>
	</clipPath>
	<path clip-path="url(#SVGID_2_)" d="M22.766,11.4c0.793-0.005,1.564,0.122,2.292,0.373c-0.568-0.617-1.188-1.163-1.85-1.629
		c-2.128-1.513-4.604-2.179-6.975-2.175c-2.799,0.006-5.501,0.883-7.771,2.448L4.489,6.444L3.09,21.075l14.629-1.401l-4.046-4.048
		C16.691,12.951,19.862,11.412,22.766,11.4 M28.931,25.67v-2.214c0-2.451-0.323-4.641-0.955-6.578
		c-0.048-0.146-0.098-0.289-0.15-0.433c-0.187-0.399-0.392-0.76-0.612-1.083c-1.155-1.677-2.633-2.39-4.448-2.404
		c-1.758-0.009-3.845,0.749-5.982,2.204c0.505,0.05,0.985,0.169,1.424,0.353c0.891,0.386,1.664,0.993,2.343,2.179
		c0.669,1.184,1.212,3.026,1.213,5.762v2.214H28.931z"/>
</g>
</svg>
