<?xml version="1.0" encoding="utf-8"?>
<!-- Generator: Adobe Illustrator 16.0.0, SVG Export Plug-In . SVG Version: 6.00 Build 0)  -->
<!DOCTYPE svg PUBLIC "-//W3C//DTD SVG 1.1//EN" "http://www.w3.org/Graphics/SVG/1.1/DTD/svg11.dtd">
<svg version="1.1" id="Layer_1" xmlns="http://www.w3.org/2000/svg" xmlns:xlink="http://www.w3.org/1999/xlink" x="0px" y="0px"
	 width="32px" height="32px" viewBox="0 0 32 32" enable-background="new 0 0 32 32" xml:space="preserve">
<g>
	<defs>
		<rect id="SVGID_1_" width="32" height="32"/>
	</defs>
	<clipPath id="SVGID_2_">
		<use xlink:href="#SVGID_1_"  overflow="visible"/>
	</clipPath>
	<path clip-path="url(#SVGID_2_)" d="M15.929,13.4c-1.394,0-2.528,1.134-2.528,2.528c0,1.395,1.134,2.529,2.528,2.529
		c1.395,0,2.53-1.135,2.53-2.529C18.459,14.534,17.324,13.4,15.929,13.4 M15.929,8.716c-6.705,0-13.457,7.291-13.457,7.291
		s6.752,7.29,13.457,7.29c6.706,0,13.458-7.29,13.458-7.29S22.635,8.716,15.929,8.716 M15.929,21.088
		c-2.849,0-5.159-2.308-5.159-5.161c0-2.85,2.31-5.159,5.159-5.159c2.851,0,5.161,2.309,5.161,5.159
		C21.09,18.78,18.78,21.088,15.929,21.088"/>
</g>
</svg>
