<?xml version="1.0" encoding="utf-8"?>
<!-- Generator: Adobe Illustrator 16.0.0, SVG Export Plug-In . SVG Version: 6.00 Build 0)  -->
<!DOCTYPE svg PUBLIC "-//W3C//DTD SVG 1.1//EN" "http://www.w3.org/Graphics/SVG/1.1/DTD/svg11.dtd">
<svg version="1.1" id="Layer_1" xmlns="http://www.w3.org/2000/svg" xmlns:xlink="http://www.w3.org/1999/xlink" x="0px" y="0px"
	 width="32px" height="32px" viewBox="0 0 32 32" enable-background="new 0 0 32 32" xml:space="preserve">
<g>
	<defs>
		<rect id="SVGID_1_" width="32" height="32"/>
	</defs>
	<clipPath id="SVGID_2_">
		<use xlink:href="#SVGID_1_"  overflow="visible"/>
	</clipPath>
	<path clip-path="url(#SVGID_2_)" d="M25.092,8.438c-1.807-1.807-4.051-2.903-6.393-3.297V2.595h-4.118v2.577
		c-1.204,0.22-2.379,0.627-3.479,1.224L9.009,4.305l0.711-0.711L8.365,2.239L2.34,8.264L3.695,9.62l0.846-0.848l2.005,2.004
		c-2.694,4.54-2.086,10.489,1.817,14.393c4.619,4.618,12.11,4.618,16.729,0C29.714,20.55,29.714,13.059,25.092,8.438 M22.554,22.628
		c-3.213,3.213-8.439,3.213-11.652,0c-3.211-3.211-3.211-8.437,0-11.652c3.213-3.21,8.439-3.21,11.652,0
		C25.765,14.191,25.765,19.417,22.554,22.628 M20.872,15.851l-3.715-0.06l-4.059-4.059c-0.398-0.398-1.042-0.398-1.441,0
		c-0.398,0.396-0.398,1.042,0,1.441l4.644,4.642l4.54,0.071c0.29,0.005,0.55-0.108,0.738-0.296c0.18-0.182,0.294-0.429,0.298-0.705
		C21.884,16.323,21.436,15.858,20.872,15.851"/>
</g>
</svg>
