<?xml version="1.0" encoding="utf-8"?>
<!-- Generator: Adobe Illustrator 16.0.0, SVG Export Plug-In . SVG Version: 6.00 Build 0)  -->
<!DOCTYPE svg PUBLIC "-//W3C//DTD SVG 1.1//EN" "http://www.w3.org/Graphics/SVG/1.1/DTD/svg11.dtd">
<svg version="1.1" id="Layer_1" xmlns="http://www.w3.org/2000/svg" xmlns:xlink="http://www.w3.org/1999/xlink" x="0px" y="0px"
	 width="300px" height="226.405px" viewBox="0 0 300 226.405" enable-background="new 0 0 300 226.405" xml:space="preserve">
<path fill-rule="evenodd" clip-rule="evenodd" d="M0,224.923l15.288-12.479l18.702-78.033l10.036-5.259l12.927-53.168L53.18,56.593
	c-2.897-0.555-6.393-2.022-9.45-3.712"/>
<path fill-rule="evenodd" clip-rule="evenodd" d="M65.118,91.938c-0.499-0.393-1-0.785-1.498-1.177
	c2.75-3.976,15.05-11.938,20.443-1.285c2.81,5.55,1.176,12.408,2.355,18.517c1.75,9.074,8.312,10.276,16.27,3.854
	c11.621-11.79,24.345-20.702,36.002-25.886c-0.198,15.166,5.197,24.957,17.087,30.667c-2.206,2.626-7.595,6.595-12.671,7.164
	c5.896-14.392-13.195-7.176-18.905-4.809c-2.699,1.117-6.421,2.955-9.025,4.276c-2.574,1.369-4.691,3.136-5.351,5.888
	c-1.456,6.056-2.507,9.259-8.824,9.737c6.36-6.785-2.139-10.562-8.589-9.27c-5.393,1.081-10.958-0.053-13.594-5.674
	c-3.98-8.485-7.501-15.746-14.45-14.663c0.454-2.571,0.954-5.409,2.997-7.385c5.811-5.62,11.664,4.551,14.411,8.702
	c-2.789-7.812-7.99-19.949-17.835-9.56c-0.928-0.535-1.856-1.069-2.783-1.604c4.837-6.259,14.442-14.755,20.444-1.179
	C80.494,85.782,72.703,86.271,65.118,91.938"/>
<path fill-rule="evenodd" clip-rule="evenodd" d="M99.251,76.085c17.555-3.117,26.053,1.979,28.508,12.186
	c3.758-2.031,7.516-4.062,11.273-6.093c0.962-7.352,6.037-16.043,11.564-21.103c-9.865-2.099-19.733-2.858-29.598-2.571
	C104.61,58.984,92.757,57.4,88.899,49c-2.386-6.022-2.415-14.771-0.308-26c2.465-13.141-12.86-17.777-23.771-7.202l1.906,2.446
	c8.877-7.145,16.875-1.515,15.375,6.753c-2.272-12.873-16.014-7.199-21.592,0.895c0.787,0.704,1.575,1.409,2.362,2.113
	c2.973-3.874,6.501-6.685,10.694-6.652c6.551,0.049,8.415,10.005,5.782,15.916c0.05-4.712-0.25-9.05-2.548-11.44
	c-2.123-2.207-4.506-1.908-6.964-0.311c-5.777,3.755-7.405,6.88-8.767,10.196c11.24-3.226,11.689,9.283,12.435,16.952
	c0.473,4.877,2.5,7.536,4.856,8.343c3.393,1.161,6.475,3.618,7.902,7.631c1.39,3.903-0.927,5.766-4.551,7.529
	C87.154,78.387,93.254,77.15,99.251,76.085"/>
<path fill-rule="evenodd" clip-rule="evenodd" d="M243.484,37.707c4.989,17.69-1.134,31.621-12.111,45.092
	c-5.195,6.376-12.702,12.343-23.912,16.681c-11.487,4.445-19.032,10.449-19.64,20.959c-13.935-23.958,10.903-26.823,31.367-39.676
	C231.705,72.9,245.616,58.312,243.484,37.707"/>
<path fill-rule="evenodd" clip-rule="evenodd" d="M225.691,117.789c-4.804-6.566-9.233-10.803-5.504-21.689
	c-5.908,5.648-16.22,7.353-21.818,11.352c-3.907,2.789-6.445,6.116-7.389,9.744c-1.016,3.922,1.715,5.023,5.181,6.442
	c8.66,3.549,15.029,11.614,17.634,24.951c3.081,5.42,5.899,10.842,8.979,16.264c1.864,3.154,3.182,5.795,4.451,8.004
	c3.866,6.729,10.902,8.756,18.989,6.698c6.662-1.694,11.766-1.212,13.678,1.607c4.183,4.899,2.902,12.364-0.914,16.251
	c-6.21,6.322-12.724,5.71-22.437-0.238c-2.979-1.825-7.177-5.472-9.982-7.555c-5.578-4.146-11.868-3.036-15.673,1.475
	c-2.658,3.538-4.514,8.777-5.752,12.315c0.786-0.189,4.186,0.526,4.973,1.406c0.565-3.022,1.926-6.047,4.443-9.071
	c3.302-3.085,6.676-3.801,10.844-1.173c2.164,1.364,3.686,2.477,7.387,6.253c-2.813-1.951-5.23-3.537-8.099-4.842
	c-10.4-4.731-12.507,11.383-14.486,17.994c2.178-1.308,4.354-0.908,6.531,0.271c-1.165-18.234,15.432-14.119,23.926-5.761
	c-5.724-3.37-15-8.323-18.938-2.584c-2.416,3.522-2.513,7.523-1.904,11.519c4.237-3.38,8.183-3.936,11.699-0.362
	c2.511,1.966,4.593,4.657,7.529,5.896c17.858,6.97,18.013-6.396,29.023-8.798c5.1-1.112,10.367,1.654,8.798,7.165
	c3.305-1.652,6.012-3.993,6.077-11.156c0.145-15.637-6.799-28.214-3.084-47.044c4.79-1.977,6.309-4.822,8.256-9.252
	c-9.196,1.339-44.303,6.353-48.526-4.897c-1.465-3.902-1.954-5.452-1.634-9.463c0.305-3.772-1.255-7.13-3.77-10.153
	c8.953-0.197,20.848-1.634,29.222-4.243c16.273-5.072,36.777-16.119,36.597-35.875c-0.126-13.709-8.779-24.449-20.748-33.827
	l-6.444,5.342c8.204,6.011,19.771,17.29,19.082,28.042c-0.955,14.893-14.848,23.589-28.835,20.364
	c-10.799-2.494-14.998-11.345-15.271-19.866c-0.258-8.023,4.523-14.599,10.427-19.482c8.34-6.897,15.795-12.91,23.564-19.899
	c5.689-5.119,8.612-9.446,11.381-16.514c5.068-1.401,6.351-5.425,4.025-10.155c-3.301-6.713-9.843-8.308-16.765-7.776
	c19.363,18.695-5.892,31.312-22.885,44.727c-9.407,7.425-17.711,16.587-17.563,29.363c-0.165,11.502,6.121,23.387,22.407,26.824
	C250.249,123.489,230.745,124.695,225.691,117.789"/>
<path fill-rule="evenodd" clip-rule="evenodd" d="M270.047,48.085c-13.249-13.445-13.026-22.946-2.394-33.842
	c-5.459,0.096-14.55,3.603-17.899,8.335c-3.743,5.287-0.187,8.573,4.61,10.469c1.351,7.57,4.652,13.566,9.707,19.297"/>
<path fill-rule="evenodd" clip-rule="evenodd" d="M189.773,29.498c-3.714-0.053-7.43,0.48-11.072,1.745
	c-7.222,2.507-14.215,3.458-21.397,2.562c-10.274-1.282-11.344-6.318-11.603-11.904c-2.811,3.616-3.141,7.306-2.109,10.85
	c1.287,4.425,6.674,6.805,14.918,6.178c6.5-0.495,13.049-2.584,20.191-5.162c4.648-1.676,8.441-2.309,11.174-2.273
	c-0.43,4.03-4.67,7.209-9.806,7.209c-2.796,0-5.322-0.942-7.116-2.449c0.152,2.807,0.487,9.309,0.65,12.118
	c8.256-5.884,18.245-2.344,25.216-3.351c4.932-0.71,9.215-2.71,11.243-6.357c4.315-7.762-0.788-11.432-6.435-14.111
	c4.935-0.704,10.621-0.788,12.87-4.265c2.134-3.3,1.437-7.454-5.118-8.683c-3.673-0.69-6.666-0.053-9.612,0.466
	c-1.778,2.366-3.409,4.866-5.713,6.767c-2.202,1.643-4.367,2.647-7.147,2.777c-3.014-0.152-4.956-1.423-5.271-4.596
	c0.148-1.745,0.601-2.882,1.556-4.332c-5.239,0.218-10.46,0.419-15.68,0.623c1.053,5.663,2.02,10.732,2.4,16.361
	C175.917,23.216,187.809,20.238,189.773,29.498"/>
<path fill-rule="evenodd" clip-rule="evenodd" d="M236.294,21.884c13.913,25.535-4.786,48.408-19.815,56.97
	c-20.777,11.834-43.796,15.4-33.356,41.29c-21.565-16.719-11.938-34.545,9.619-42.222c21.744-7.742,44.284-20.344,45.214-42.54
	C238.117,31.554,237.461,26.609,236.294,21.884"/>
<path fill-rule="evenodd" clip-rule="evenodd" d="M224.724,45.961c8.308-10.122,9.504-20.863,1.399-31.631
	c7.248,4.974,9.543,12.566,8.981,20.682c-0.957,13.847-13.422,26.469-27.13,33.057c-18.193,8.742-39.746,11.541-40.583,31.435
	c-0.368,8.761,4.866,14.516,10.118,19.837c-11.978-3.334-20.413-13.085-20.689-27.969c-0.189-10.308,6.554-20.916,26.147-26.614
	C200.904,59.544,216.972,55.405,224.724,45.961"/>
<path fill-rule="evenodd" clip-rule="evenodd" d="M212.165,25.794c7.617-2.271,8.78-6.92,9.038-12.652
	c14.447,13.423,4.507,33.813-11.248,39.247c-12.589,4.342-21.581,7.049-34.022,10.946c-12.304,3.854-22.923,13.406-22.895,27.785
	c0.023,12.728,6.248,20.04,13.369,25.662c-13.669-2.976-24.889-10.003-24.958-29.521c-0.055-15.364,10.56-27.031,23.465-30.763
	c12.103-3.5,24.684-6.261,37.698-8.943C213.079,45.398,218.896,35.186,212.165,25.794"/>
<path fill-rule="evenodd" clip-rule="evenodd" d="M186.128,16.486c0.286-1.739,1.063-2.719,2.404-4.077
	c3.327-0.208,7.117-0.502,10.35-0.488c-1.872,2.47-3.185,4.669-6.419,6.318C189.23,19.888,185.651,19.381,186.128,16.486"/>
<path fill-rule="evenodd" clip-rule="evenodd" d="M103.002,210.83c-0.604,0.39-1.248,0.791-1.91,1.192l3.024-12.729
	c0-0.002,0-0.006,0-0.008c-3,0.053-4.3,0.287-7.182,1.543c1.686-4.32,3.518-6.982,5.284-10.434
	c-2.636-0.364-3.547-0.459-7.561,0.927c0.742-2.302,2.201-6.098,3.199-7.808l-10.22-50.829c-4.257,0.039-7.777-1.827-9.902-5.96
	c-2.981-5.804-7.469-13.962-10.882-13.005l3.324,16.302l9.113,4.682c5.316,26.138,11.816,58.001,17.133,84.137l9.91,7.564"/>
<path fill-rule="evenodd" clip-rule="evenodd" d="M191.938,127.532c0.383-0.6,0.767-1.2,1.148-1.802
	c7.284,3.11,13.469,9.752,17.694,22.693c-2.02-0.328-4.065-0.529-6.062-0.983c-2.138-0.487-3.398-1.673-3.113-4.506
	C202.451,134.572,198.541,129.799,191.938,127.532"/>
<path fill-rule="evenodd" clip-rule="evenodd" d="M187.142,128.505c0.85-1.331,1.698-2.663,2.546-3.994
	c-5.16-2.209-10.924-2.343-16.097-0.866c-7.645,2.186-15.514,3.672-22.969,6.433c-17.231,6.381-12.776,24.177-6.216,36.906
	c4.945,9.599,13.778,28.882,1.547,32.603c-12.169,2.15-14.428-17.987-23.95-24.581c-8.755-5.021-18.237,4.572-22.674,11.475
	l4.337,1.149c2.937-4.086,6.258-8.736,11.115-8.796c4.268-0.054,7.888,4.174,8.521,8.029c-3.272-4.742-7.908-8.465-12.625-3.569
	c-3.501,3.634-5.917,8.239-8.161,13.005l3.443,0.129c2.175-6.156,8.612-11.905,15.229-7.38c2.236,1.528,5.707,5.597,9.127,12.991
	c-5.12-6.29-12.304-18.445-20.276-8.799c-2.857,3.46-3.388,8.25-4.462,12.625c4.055-2.522,8.192-3.469,11.987,0.51
	c0.84,0.882,1.575,1.888,2.133,2.97c4.302,8.334,18.786,15.361,26.186,8.608c2.118-1.933,7.272-5.782,11.104-5.925
	c3.569-0.131,5.383,4.401,4.571,7.226c5.318-0.509,9.541-4.418,11.349-15.813c0.466-10.724,0.934-21.445,1.4-32.169
	c3.889-1.178,8.198-2.904,9.813-9.442c-5.424,2.261-10.797,1.935-14.31-0.709c-2.812-2.113-3.818-5.054-2.55-7.567
	c1.647-3.26,7.778-3.539,14.889-1.304c9.697,3.047,19.519,2.628,30.294,0.873c-0.283-0.533-0.252-1.519-0.851-1.602
	c-5.096-0.705-9.228-0.924-11.126-2.563c-2.112-1.822-2.49-3.819-2.129-5.979C199.762,134.481,194.851,130.467,187.142,128.505"/>
<path fill-rule="evenodd" clip-rule="evenodd" d="M183.39,5.345l1.303,4.959c12.009-1.422,24.766-1.349,38.103-0.115
	c1.143-2.866,2.287-5.726,3.437-8.589c-2.643-0.135-5.286-0.266-7.924-0.409c-1.32,1.701-2.66,4.102-4.97,4.206
	c-3.022,0.136-4.66-2.486-6.497-4.69c-1.84-0.027-3.675-0.056-5.51-0.084c-1.643,2.654-2.84,4.829-6.165,4.782
	c-3.309-0.047-4.594-2.634-6.067-5.404l-6.965,0.453"/>
<path fill-rule="evenodd" clip-rule="evenodd" d="M61.869,88.31c3.773-3.66,8.553-7.926,15.958-7.161l-3.979-19.72
	c-1.854-2.534-2.948-3.557-3.472-7.002c-0.028,0.015,0.028-0.015,0,0l-0.249-3.619l0,0c-0.105-3.157-0.717-7.345-2.416-8.157
	c-2.525,2.033-5.932,3.366-9.268,3.366c-8.013,0-14.545-6.533-14.545-14.548c0-7.994,6.501-14.514,14.489-14.544
	c1.635,0,2.883,0.184,3.902,0.479l-1.475-2.04l5.754-4.98c-2.523-0.978-5.263-1.517-8.126-1.517
	c-12.451,0-22.603,10.153-22.603,22.603c0,11.359,8.454,20.776,19.386,22.35"/>
</svg>
