<?xml version="1.0" encoding="utf-8"?>
<!-- Generator: Adobe Illustrator 16.0.0, SVG Export Plug-In . SVG Version: 6.00 Build 0)  -->
<!DOCTYPE svg PUBLIC "-//W3C//DTD SVG 1.1//EN" "http://www.w3.org/Graphics/SVG/1.1/DTD/svg11.dtd">
<svg version="1.1" id="Layer_1" xmlns="http://www.w3.org/2000/svg" xmlns:xlink="http://www.w3.org/1999/xlink" x="0px" y="0px"
	 width="427.074px" height="28.408px" viewBox="-356.671 64.458 427.074 28.408"
	 enable-background="new -356.671 64.458 427.074 28.408" xml:space="preserve">
<g>
	<polygon fill="#F7ECC9" points="70.144,77.711 24.368,64.594 21.446,64.496 22.147,92.846 24.363,92.711 	"/>
	<polygon fill="#626463" points="70.403,77.633 50.409,71.926 50.408,84.225 	"/>
	<g>
		<path fill="#D1192B" d="M26.775,90.826l-4.629-4.127l-378.103,0.02c0.351,2.071,0.821,4.125,1.429,6.146l376.675-0.02
			L26.775,90.826z"/>
		<path fill="#D1192B" d="M-356.661,77.24l378.811-0.018l4.625-4.236l-4.628-3.902l-377.998,0.02
			C-356.341,71.794-356.609,74.514-356.661,77.24z"/>
		<path fill="#E85B6F" d="M22.146,69.083l4.63-3.43l-4.628-1.196l-376.929,0.018c-0.43,1.529-0.788,3.074-1.071,4.628L22.146,69.083
			z"/>
		<path fill="#E85B6F" d="M-355.958,86.719L22.145,86.7l4.63-4.743l-4.626-4.734l-378.81,0.018
			C-356.724,80.411-356.487,83.583-355.958,86.719z"/>
	</g>
</g>
</svg>
